<?xml version="1.0" encoding="iso-8859-1"?>
<!-- Uploaded to: SVG Repo, www.svgrepo.com, Generator: SVG Repo Mixer Tools -->
<svg height="800px" width="800px" version="1.1" id="Layer_1" xmlns="http://www.w3.org/2000/svg" xmlns:xlink="http://www.w3.org/1999/xlink" 
	 viewBox="0 0 512.004 512.004" xml:space="preserve">
<path style="fill:#FFDB2D;" d="M257.717,486.478c-1.122-0.276-2.308-0.276-3.433,0c-89.018,21.91-73.273,27-132.381-43.015
	c-0.745-0.883-1.705-1.58-2.775-2.016C34.21,406.839,43.976,420.196,37.31,328.835c-0.084-1.152-0.452-2.282-1.062-3.264
	c-48.353-77.902-48.31-61.362,0.001-139.194c0.609-0.982,0.975-2.112,1.06-3.266c6.659-91.276-3.173-77.972,81.817-112.609
	c1.071-0.437,2.031-1.134,2.779-2.018C181.056-1.581,165.339,3.58,254.286,25.472c1.122,0.276,2.308,0.276,3.433,0
	C346.761,3.556,331.01-1.506,390.101,68.487c0.745,0.883,1.705,1.58,2.775,2.016c84.918,34.608,75.152,21.251,81.818,112.612
	c0.084,1.152,0.452,2.282,1.061,3.264c48.353,77.902,48.31,61.362-0.001,139.194c-0.609,0.982-0.975,2.112-1.06,3.266
	c-6.659,91.276,3.173,77.972-81.817,112.609c-1.071,0.437-2.031,1.134-2.779,2.018C330.809,513.693,346.746,508.389,257.717,486.478
	z M261.804,41.618h0.011H261.804z"/>
<path style="fill:#FF9900;" d="M475.753,186.378c-0.61-0.983-0.976-2.113-1.062-3.264c-6.664-91.362,3.1-78.004-81.818-112.612
	c-1.069-0.436-2.03-1.133-2.775-2.016C331.009-1.507,346.76,3.555,257.718,25.471c-0.562,0.138-1.14,0.208-1.717,0.208V486.27
	c0.577,0,1.155,0.07,1.716,0.208c89.029,21.912,73.092,27.215,132.381-43.013c0.747-0.884,1.707-1.581,2.779-2.018
	c84.99-34.637,75.158-21.333,81.817-112.609c0.084-1.155,0.452-2.284,1.06-3.266C524.063,247.739,524.106,264.28,475.753,186.378z
	 M261.804,41.618h0.011H261.804z"/>
<path style="fill:#A7A9AC;" d="M267.005,238.871h-22.007c-21.095,0-21.096-31.925,0-31.925h55.47
	c9.445,0,17.103-7.658,17.103-17.103s-7.658-17.103-17.103-17.103h-27.365v-26.224c0-9.445-7.658-17.103-17.103-17.103
	c-9.445,0-17.103,7.658-17.103,17.103v26.609c-61.785,7.528-56.601,99.952,6.1,99.952h22.007c21.095,0,21.096,31.925,0,31.925
	h-55.47c-9.445,0-17.103,7.658-17.103,17.103c0,9.445,7.658,17.103,17.103,17.103h27.365v26.224c0,9.445,7.658,17.103,17.103,17.103
	c9.445,0,17.103-7.658,17.103-17.103v-26.609C334.888,331.297,329.705,238.871,267.005,238.871z"/>
<g>
	<path style="fill:#808285;" d="M300.468,206.946c9.445,0,17.103-7.658,17.103-17.103s-7.658-17.103-17.103-17.103h-27.365v-26.224
		c0-9.445-7.658-17.103-17.103-17.103v77.533H300.468z"/>
	<path style="fill:#808285;" d="M267.005,238.871h-11.003v34.206h11.003c21.095,0,21.096,31.925,0,31.925h-11.003v77.533
		c9.445,0,17.103-7.658,17.103-17.103v-26.609C334.888,331.297,329.705,238.871,267.005,238.871z"/>
</g>
</svg>